<svg xmlns="http://www.w3.org/2000/svg" xmlns:xlink="http://www.w3.org/1999/xlink" id="Layer_1" x="0" y="0" version="1.1" viewBox="0 0 512 512" style="enable-background:new 0 0 512 512" xml:space="preserve"><style type="text/css">.st0{fill-rule:evenodd;clip-rule:evenodd;fill:url(#XMLID_2_)}.st1{fill:url(#XMLID_3_)}.st1,.st2,.st3,.st4,.st5,.st6,.st7,.st8{fill-rule:evenodd;clip-rule:evenodd}.st2{fill:url(#XMLID_4_)}.st3{fill:url(#XMLID_5_)}.st4{fill:url(#XMLID_6_)}.st5{fill:url(#XMLID_7_)}.st6{fill:url(#XMLID_8_)}.st7{fill:url(#XMLID_9_)}.st8{fill:url(#XMLID_10_)}.st10,.st9{fill:#d58128}.st9{opacity:.5}.st10{opacity:.2}</style><g id="XMLID_27_"><linearGradient id="XMLID_2_" x1="261.034" x2="261.034" y1="14.069" y2="349.535" gradientTransform="matrix(0.9546 0.2978 -0.2978 0.9546 61.1308 4.1511)" gradientUnits="userSpaceOnUse"><stop offset="0" style="stop-color:#fdd900"/><stop offset="1" style="stop-color:#e29f25"/></linearGradient><circle id="XMLID_496_" cx="256.2" cy="255.4" r="167.7" class="st0"/><linearGradient id="XMLID_3_" x1="417.153" x2="417.153" y1="-7.999" y2="60.525" gradientTransform="matrix(0.9546 0.2978 -0.2978 0.9546 61.1308 4.1511)" gradientUnits="userSpaceOnUse"><stop offset="0" style="stop-color:#fdd900"/><stop offset="1" style="stop-color:#e6a323"/></linearGradient><path id="XMLID_495_" d="M487.1,134.8c-5.1-9.8-17.3-13.6-27.1-8.5L424.4,145c-9.8,5.1-13.6,17.3-8.5,27.1 c5.1,9.8,17.3,13.6,27.1,8.5l35.6-18.6C488.4,156.8,492.2,144.6,487.1,134.8z" class="st1"/><linearGradient id="XMLID_4_" x1="104.916" x2="104.916" y1="304.238" y2="372.762" gradientTransform="matrix(0.9546 0.2978 -0.2978 0.9546 61.1308 4.1511)" gradientUnits="userSpaceOnUse"><stop offset="0" style="stop-color:#fdd900"/><stop offset="1" style="stop-color:#e6a323"/></linearGradient><path id="XMLID_494_" d="M96,339.9c-5.1-9.8-17.3-13.6-27.1-8.5l-35.6,18.6c-9.8,5.1-13.6,17.3-8.5,27.1 c5.1,9.8,17.3,13.6,27.1,8.5L87.6,367C97.4,361.8,101.2,349.7,96,339.9z" class="st2"/><linearGradient id="XMLID_5_" x1="481.814" x2="481.814" y1="162.293" y2="202.432" gradientTransform="matrix(0.9546 0.2978 -0.2978 0.9546 61.1308 4.1511)" gradientUnits="userSpaceOnUse"><stop offset="0" style="stop-color:#fdd900"/><stop offset="1" style="stop-color:#e6a323"/></linearGradient><path id="XMLID_492_" d="M505.1,333.7c3.3-10.6-2.6-21.8-13.2-25.1l-38.3-12c-10.6-3.3-21.8,2.6-25.1,13.2 c-3.3,10.6,2.6,21.8,13.2,25.1l38.3,12C490.5,350.2,501.8,344.3,505.1,333.7z" class="st3"/><linearGradient id="XMLID_6_" x1="40.254" x2="40.254" y1="162.331" y2="202.47" gradientTransform="matrix(0.9546 0.2978 -0.2978 0.9546 61.1308 4.1511)" gradientUnits="userSpaceOnUse"><stop offset="0" style="stop-color:#fdd900"/><stop offset="1" style="stop-color:#e6a323"/></linearGradient><path id="XMLID_491_" d="M83.6,202.2c3.3-10.6-2.6-21.8-13.2-25.1l-38.3-12c-10.6-3.3-21.8,2.6-25.1,13.2 c-3.3,10.6,2.6,21.8,13.2,25.1l38.3,12C69,218.7,80.2,212.8,83.6,202.2z" class="st4"/><linearGradient id="XMLID_7_" x1="104.916" x2="104.916" y1="-7.999" y2="60.525" gradientTransform="matrix(0.9546 0.2978 -0.2978 0.9546 61.1308 4.1511)" gradientUnits="userSpaceOnUse"><stop offset="0" style="stop-color:#fdd900"/><stop offset="1" style="stop-color:#e6a323"/></linearGradient><path id="XMLID_489_" d="M134.8,24.9c-9.8,5.1-13.6,17.3-8.5,27.1L145,87.6c5.1,9.8,17.3,13.6,27.1,8.5 c9.8-5.1,13.6-17.3,8.5-27.1l-18.6-35.6C156.8,23.6,144.6,19.8,134.8,24.9z" class="st5"/><linearGradient id="XMLID_8_" x1="417.153" x2="417.153" y1="304.238" y2="372.762" gradientTransform="matrix(0.9546 0.2978 -0.2978 0.9546 61.1308 4.1511)" gradientUnits="userSpaceOnUse"><stop offset="0" style="stop-color:#fdd900"/><stop offset="1" style="stop-color:#e6a323"/></linearGradient><path id="XMLID_477_" d="M339.9,416c-9.8,5.1-13.6,17.3-8.5,27.1l18.6,35.6c5.1,9.8,17.3,13.6,27.1,8.5 c9.8-5.1,13.6-17.3,8.5-27.1L367,424.4C361.8,414.6,349.7,410.8,339.9,416z" class="st6"/><linearGradient id="XMLID_9_" x1="261.053" x2="261.053" y1="363.023" y2="443.3" gradientTransform="matrix(0.9546 0.2978 -0.2978 0.9546 61.1308 4.1511)" gradientUnits="userSpaceOnUse"><stop offset="0" style="stop-color:#fdd900"/><stop offset="1" style="stop-color:#e6a323"/></linearGradient><path id="XMLID_475_" d="M178.3,505.1c10.6,3.3,21.8-2.6,25.1-13.2l12-38.3c3.3-10.6-2.6-21.8-13.2-25.1 c-10.6-3.3-21.8,2.6-25.1,13.2l-12,38.3C161.8,490.5,167.7,501.8,178.3,505.1z" class="st7"/><linearGradient id="XMLID_10_" x1="261.015" x2="261.015" y1="-78.537" y2="1.74" gradientTransform="matrix(0.9546 0.2978 -0.2978 0.9546 61.1308 4.1511)" gradientUnits="userSpaceOnUse"><stop offset="0" style="stop-color:#fdd900"/><stop offset="1" style="stop-color:#e6a323"/></linearGradient><path id="XMLID_474_" d="M309.8,83.6c10.6,3.3,21.8-2.6,25.1-13.2l12-38.3c3.3-10.6-2.6-21.8-13.2-25.1 s-21.8,2.6-25.1,13.2l-12,38.3C293.3,69,299.2,80.2,309.8,83.6z" class="st8"/><path id="XMLID_470_" d="M248.7,422.5c43.6,1.4,93.8-14.3,123.7-47.2c-31.8,16.3-73.6,35.4-121.5,33.9 c-47.9-1.5-73.3-12.5-100-24.4C173.1,402.8,204.5,421.1,248.7,422.5z" class="st9"/><path id="XMLID_469_" d="M263.3,86.3c-43.1-1.4-92.8,14.4-122.4,47.2c31.5-16.3,72.8-35.4,120.1-33.9 c47.3,1.5,72.5,12.5,98.9,24.4C338,105.9,307,87.6,263.3,86.3z" class="st10"/></g></svg>