<svg xmlns="http://www.w3.org/2000/svg" xmlns:svg="http://www.w3.org/2000/svg" xmlns:xlink="http://www.w3.org/1999/xlink" id="svg2424" width="16" height="16" version="1.0"><defs id="defs2426"><linearGradient id="path1082_2_" x1="112.499" x2="112.499" y1="6.137" y2="129.347" gradientTransform="translate(287,-83)" gradientUnits="userSpaceOnUse"><stop id="stop193" offset="0" style="stop-color:#fff;stop-opacity:0"/><stop id="stop195" offset="1" style="stop-color:#fff;stop-opacity:.27450982"/><midPointStop id="midPointStop197" style="stop-color:#fff" offset="0"/><midPointStop id="midPointStop199" style="stop-color:#fff" offset=".5"/><midPointStop id="midPointStop201" style="stop-color:#000" offset="1"/></linearGradient><linearGradient id="linearGradient3388"><stop style="stop-color:#000;stop-opacity:0" id="stop3390" offset="0"/><stop style="stop-color:#000;stop-opacity:.37113401" id="stop3392" offset="1"/></linearGradient><linearGradient id="linearGradient4346"><stop style="stop-color:#00bdec;stop-opacity:1" id="stop4348" offset="0"/><stop style="stop-color:#40bfde;stop-opacity:1" id="stop4350" offset="1"/></linearGradient><linearGradient id="linearGradient4352" x1="400.614" x2="616.486" y1="634.151" y2="666.978" gradientUnits="userSpaceOnUse" xlink:href="#linearGradient4346"/><linearGradient id="linearGradient5323"><stop style="stop-color:#6e6e6e;stop-opacity:1" id="stop5325" offset="0"/><stop style="stop-color:#4d4d4d;stop-opacity:1" id="stop5327" offset="1"/></linearGradient><linearGradient id="linearGradient5329" x1="291.836" x2="650.814" y1="238.082" y2="348.969" gradientUnits="userSpaceOnUse" xlink:href="#linearGradient5323"/><linearGradient id="linearGradient2216" x1="541.335" x2="606.912" y1="104.507" y2="303.14" gradientTransform="matrix(-0.3937741,0,0,0.393752,978.34967,416.9815)" gradientUnits="userSpaceOnUse" xlink:href="#path1082_2_"/></defs><metadata id="metadata2429"/><g id="layer1" transform="translate(-269.51781,-265.60124)"><g id="g2424" transform="matrix(1.3473684,0,0,1.3473684,-632.88236,-513.34366)"><g id="g2210" transform="matrix(0.25,0,0,0.25,502.3126,469.21738)"><g id="g28" transform="matrix(0.29166667,0,0,0.29166667,477.3751,297.68101)" style="opacity:1;fill:#444;fill-opacity:1"><path id="path2518" d="m 741.00015,483.12318 c -6.34282,15.5509 -10.19396,25.73748 -17.25586,40.82611 4.32983,4.58962 9.65118,9.91474 18.28217,15.95123 -9.27916,-3.81832 -15.60463,-7.64184 -20.33478,-11.61987 -9.03787,18.85892 -23.20682,45.7121 -51.94153,97.34253 22.57885,-13.03517 40.08235,-21.07534 56.39465,-24.14429 -0.69789,-3.00828 -1.0707,-6.27752 -1.0437,-9.67163 l 0.0174,-0.71319 c 0.35836,-14.46931 7.88723,-25.59559 16.80359,-24.84009 8.91635,0.75549 15.85732,13.1018 15.49896,27.5711 -0.0675,2.72544 -0.38436,5.34421 -0.92194,7.77558 16.13675,3.15791 33.47519,11.16227 55.75104,24.02252 -4.39297,-8.08778 -8.32763,-15.37432 -12.07214,-22.31781 -5.89822,-4.57152 -12.04738,-10.51908 -24.59656,-16.96014 8.62559,2.24128 14.80767,4.83303 19.62158,7.72338 -38.07152,-70.88252 -41.14731,-80.30772 -54.20288,-110.94543 z" style="fill:#444;fill-opacity:1;fill-rule:evenodd;stroke:none;stroke-width:.556641;stroke-linecap:round;stroke-linejoin:round;stroke-miterlimit:10;stroke-dasharray:none;stroke-opacity:1"/></g></g></g></g></svg>