<svg xmlns="http://www.w3.org/2000/svg" xmlns:svg="http://www.w3.org/2000/svg" xmlns:xlink="http://www.w3.org/1999/xlink" id="svg2424" width="16" height="16" version="1.0"><defs id="defs2426"><linearGradient id="path1082_2_" x1="112.499" x2="112.499" y1="6.137" y2="129.347" gradientTransform="translate(287,-83)" gradientUnits="userSpaceOnUse"><stop id="stop193" offset="0" style="stop-color:#fff;stop-opacity:0"/><stop id="stop195" offset="1" style="stop-color:#fff;stop-opacity:.27450982"/><midPointStop id="midPointStop197" style="stop-color:#fff" offset="0"/><midPointStop id="midPointStop199" style="stop-color:#fff" offset=".5"/><midPointStop id="midPointStop201" style="stop-color:#000" offset="1"/></linearGradient><linearGradient id="linearGradient3388"><stop style="stop-color:#000;stop-opacity:0" id="stop3390" offset="0"/><stop style="stop-color:#000;stop-opacity:.37113401" id="stop3392" offset="1"/></linearGradient><linearGradient id="linearGradient4346"><stop style="stop-color:#00bdec;stop-opacity:1" id="stop4348" offset="0"/><stop style="stop-color:#40bfde;stop-opacity:1" id="stop4350" offset="1"/></linearGradient><linearGradient id="linearGradient4352" x1="400.614" x2="616.486" y1="634.151" y2="666.978" gradientUnits="userSpaceOnUse" xlink:href="#linearGradient4346"/><linearGradient id="linearGradient5323"><stop style="stop-color:#6e6e6e;stop-opacity:1" id="stop5325" offset="0"/><stop style="stop-color:#4d4d4d;stop-opacity:1" id="stop5327" offset="1"/></linearGradient><linearGradient id="linearGradient5329" x1="291.836" x2="650.814" y1="238.082" y2="348.969" gradientUnits="userSpaceOnUse" xlink:href="#linearGradient5323"/><linearGradient id="linearGradient2216" x1="541.335" x2="606.912" y1="104.507" y2="303.14" gradientTransform="matrix(-0.3937741,0,0,0.393752,978.34967,416.9815)" gradientUnits="userSpaceOnUse" xlink:href="#path1082_2_"/></defs><metadata id="metadata2429"/><g id="layer1" transform="translate(-269.51781,-265.60124)"><g id="g2424" transform="matrix(1.3473684,0,0,1.3473684,-632.88236,-513.34366)"><g id="g2210" transform="matrix(0.25,0,0,0.25,502.3126,469.21738)"><path id="path878-5-1-2-7-6-6-5-3-2-6" style="fill:#eee;fill-opacity:1;stroke:none;stroke-width:.809906" d="M 5.5 1 L 5.5 3 L 3 3 L 3 15 L 13 15 L 13 3 L 10.5 3 L 10.5 1 L 5.5 1 z M 6.9375 2.4375 L 9.0625 2.4375 L 9.0625 4.4375 L 11.5625 4.4375 L 11.5625 5.21875 L 4.4824219 5.21875 L 4.4824219 4.4375 L 6.9375 4.4375 L 6.9375 2.4375 z M 8 5.4453125 L 8 8.4453125 L 11 8.4453125 L 8 13.445312 L 8 10.445312 L 5 10.445312 L 8 5.4453125 z" transform="matrix(2.96875,0,0,2.96875,669.75015,435.62319)"/></g></g></g></svg>