<svg xmlns="http://www.w3.org/2000/svg" xmlns:svg="http://www.w3.org/2000/svg" xmlns:xlink="http://www.w3.org/1999/xlink" id="svg2424" width="16" height="16" version="1.0"><defs id="defs2426"><linearGradient id="path1082_2_" x1="112.499" x2="112.499" y1="6.137" y2="129.347" gradientTransform="translate(287,-83)" gradientUnits="userSpaceOnUse"><stop id="stop193" offset="0" style="stop-color:#fff;stop-opacity:0"/><stop id="stop195" offset="1" style="stop-color:#fff;stop-opacity:.27450982"/><midPointStop id="midPointStop197" style="stop-color:#fff" offset="0"/><midPointStop id="midPointStop199" style="stop-color:#fff" offset=".5"/><midPointStop id="midPointStop201" style="stop-color:#000" offset="1"/></linearGradient><linearGradient id="linearGradient3388"><stop style="stop-color:#000;stop-opacity:0" id="stop3390" offset="0"/><stop style="stop-color:#000;stop-opacity:.37113401" id="stop3392" offset="1"/></linearGradient><linearGradient id="linearGradient4346"><stop style="stop-color:#00bdec;stop-opacity:1" id="stop4348" offset="0"/><stop style="stop-color:#40bfde;stop-opacity:1" id="stop4350" offset="1"/></linearGradient><linearGradient id="linearGradient4352" x1="400.614" x2="616.486" y1="634.151" y2="666.978" gradientUnits="userSpaceOnUse" xlink:href="#linearGradient4346"/><linearGradient id="linearGradient5323"><stop style="stop-color:#6e6e6e;stop-opacity:1" id="stop5325" offset="0"/><stop style="stop-color:#4d4d4d;stop-opacity:1" id="stop5327" offset="1"/></linearGradient><linearGradient id="linearGradient5329" x1="291.836" x2="650.814" y1="238.082" y2="348.969" gradientUnits="userSpaceOnUse" xlink:href="#linearGradient5323"/><linearGradient id="linearGradient2216" x1="541.335" x2="606.912" y1="104.507" y2="303.14" gradientTransform="matrix(-0.3937741,0,0,0.393752,978.34967,416.9815)" gradientUnits="userSpaceOnUse" xlink:href="#path1082_2_"/><style id="current-color-scheme" type="text/css"/><style id="current-color-scheme-4" type="text/css"/><style id="current-color-scheme-3" type="text/css"/></defs><metadata id="metadata2429"/><g id="layer1" transform="translate(-269.51781,-265.60124)"><g id="g2424" transform="matrix(1.3473684,0,0,1.3473684,-632.88236,-513.34366)"><g id="g2210" transform="matrix(0.25,0,0,0.25,502.3126,469.21738)"><path id="path858" style="fill:#444;fill-opacity:1;stroke-width:.928569" d="M 8 1.5 C 5.9422821 1.5 4.2851562 3.1571394 4.2851562 5.2148438 L 4.2851562 7.0722656 L 3.3574219 7.0722656 C 2.8429933 7.0722656 2.4277344 7.4855747 2.4277344 8 L 2.4277344 13.572266 C 2.4277344 14.086691 2.8429933 14.5 3.3574219 14.5 L 12.642578 14.5 C 13.157013 14.5 13.572266 14.086688 13.572266 13.572266 L 13.572266 8 C 13.572266 7.4855747 13.157013 7.0722656 12.642578 7.0722656 L 11.714844 7.0722656 L 11.714844 5.2148438 C 11.714844 3.1571394 10.057708 1.5 8 1.5 z M 8 3.3574219 C 9.0288572 3.3574219 9.8574219 4.1859932 9.8574219 5.2148438 L 9.8574219 7.0722656 L 6.1425781 7.0722656 L 6.1425781 5.2148438 C 6.1425781 4.1859932 6.9711394 3.3574219 8 3.3574219 z M 8 10.363281 A 1.3255516 1.3255516 0 0 1 9.3261719 11.689453 A 1.3255516 1.3255516 0 0 1 8 13.013672 A 1.3255516 1.3255516 0 0 1 6.6738281 11.689453 A 1.3255516 1.3255516 0 0 1 8 10.363281 z" transform="matrix(2.96875,0,0,2.96875,669.75015,435.62319)"/></g></g></g></svg>