<svg xmlns="http://www.w3.org/2000/svg" xmlns:svg="http://www.w3.org/2000/svg" xmlns:xlink="http://www.w3.org/1999/xlink" id="svg2424" width="16" height="16" version="1.0"><defs id="defs2426"><linearGradient id="path1082_2_" x1="112.499" x2="112.499" y1="6.137" y2="129.347" gradientTransform="translate(287,-83)" gradientUnits="userSpaceOnUse"><stop id="stop193" offset="0" style="stop-color:#fff;stop-opacity:0"/><stop id="stop195" offset="1" style="stop-color:#fff;stop-opacity:.27450982"/><midPointStop id="midPointStop197" style="stop-color:#fff" offset="0"/><midPointStop id="midPointStop199" style="stop-color:#fff" offset=".5"/><midPointStop id="midPointStop201" style="stop-color:#000" offset="1"/></linearGradient><linearGradient id="linearGradient3388"><stop style="stop-color:#000;stop-opacity:0" id="stop3390" offset="0"/><stop style="stop-color:#000;stop-opacity:.37113401" id="stop3392" offset="1"/></linearGradient><linearGradient id="linearGradient4346"><stop style="stop-color:#00bdec;stop-opacity:1" id="stop4348" offset="0"/><stop style="stop-color:#40bfde;stop-opacity:1" id="stop4350" offset="1"/></linearGradient><linearGradient id="linearGradient4352" x1="400.614" x2="616.486" y1="634.151" y2="666.978" gradientUnits="userSpaceOnUse" xlink:href="#linearGradient4346"/><linearGradient id="linearGradient5323"><stop style="stop-color:#6e6e6e;stop-opacity:1" id="stop5325" offset="0"/><stop style="stop-color:#4d4d4d;stop-opacity:1" id="stop5327" offset="1"/></linearGradient><linearGradient id="linearGradient5329" x1="291.836" x2="650.814" y1="238.082" y2="348.969" gradientUnits="userSpaceOnUse" xlink:href="#linearGradient5323"/><linearGradient id="linearGradient2216" x1="541.335" x2="606.912" y1="104.507" y2="303.14" gradientTransform="matrix(-0.3937741,0,0,0.393752,978.34967,416.9815)" gradientUnits="userSpaceOnUse" xlink:href="#path1082_2_"/></defs><metadata id="metadata2429"/><g id="layer1" transform="translate(-269.51781,-265.60124)"><g id="g2424" transform="matrix(1.3473684,0,0,1.3473684,-632.88236,-513.34366)"><g id="g2210" transform="matrix(0.25,0,0,0.25,502.3126,469.21738)"><g id="g846" transform="matrix(0.30582574,0,0,0.30582574,458.81286,297.67378)" style="fill:#444;fill-opacity:1"><path id="path830" d="m 828.64313,460.77925 -19.69117,19.69117 c -24.6674,-21.58571 -62.35812,-20.74368 -85.86181,2.76 -9.85791,9.85792 -15.70368,22.22452 -17.60956,35.07996 h 25.43732 c 1.63389,-6.34114 4.9001,-12.36257 9.89776,-17.36023 13.9019,-13.9019 35.49038,-14.45346 50.41077,-2.35992 l -18.11401,18.11401 62.22778,5.90851 z" style="line-height:normal;font-family:Sans;-inkscape-font-specification:Sans;text-indent:0;text-align:start;text-transform:none;overflow:visible;opacity:1;fill:#444;fill-opacity:1;stroke-width:12.6032"/><path id="path884" d="m 10,33.039062 2.255859,20.828126 6.632813,-6.632813 c 8.309022,7.270976 21.004843,6.987344 28.921875,-0.929687 3.28922,-3.289225 5.256158,-7.408821 5.921875,-11.695313 h -8.59961 c -0.55822,2.091516 -1.640961,4.074557 -3.292968,5.726563 -4.682745,4.682744 -11.954653,4.868535 -16.980469,0.794921 l 6.101563,-6.101562 z" transform="matrix(2.96875,0,0,2.96875,669.75015,435.62319)" style="line-height:normal;font-family:Sans;-inkscape-font-specification:Sans;text-indent:0;text-align:start;text-transform:none;overflow:visible;opacity:1;fill:#444;fill-opacity:1;stroke-width:4.24529"/></g></g></g></g></svg>