<svg xmlns="http://www.w3.org/2000/svg" xmlns:svg="http://www.w3.org/2000/svg" id="svg8" width="16" height="16" version="1.1" viewBox="0 0 4.233 4.233"><metadata id="metadata5"/><g id="layer1" transform="translate(0,-284.29998)"><g id="g1103" transform="matrix(0.90909086,0,0,0.90909086,0.53257261,26.307443)"><path id="rect77596" style="opacity:.9;fill:#eee;fill-opacity:1;stroke:none;stroke-width:.312106;stroke-linejoin:round;stroke-miterlimit:2;stroke-dasharray:none" d="m 1.4470183,284.30113 -0.76031238,1.85059 -0.44697153,-0.90093 -0.0455035,0.10442 -0.48901911,1.11674 v 0.26511 l 0.54085859,-1.2345 0.38649213,0.78027 -0.68024919,1.65625 h 0.77240825 l 0.33580464,-0.79361 0.015552,0.0314 0.080639,-0.0423 H 2.025893 l 0.5638983,0.45248 0.1434225,0.35213 h 0.7689524 l -0.4613715,-1.11499 0.3749723,-0.76228 0.3640283,0.87831 v -0.27846 l -0.3565404,-0.85859 -0.4371796,0.88818 -0.9884061,-2.39012 z m 1.6559834,0 a 0.39905635,0.4024483 0 0 0 -0.3991639,0.40261 0.39905635,0.4024483 0 0 0 0.3991639,0.40261 0.39905635,0.4024483 0 0 0 0.3991641,-0.40261 0.39905635,0.4024483 0 0 0 -0.3991641,-0.40261 z m -1.3806581,0.99781 0.40262,1.1585 h -0.80524 z m 0.4763472,1.83551 h 0.2067819 l 0.1002233,0.24654 z"/></g></g></svg>