<svg xmlns="http://www.w3.org/2000/svg" xmlns:svg="http://www.w3.org/2000/svg" id="svg166" width="24" height="24" version="1.1"><defs id="defs160"><style id="current-color-scheme" type="text/css">.ColorScheme-Text{color:#c6c6c6}</style></defs><g id="g164" transform="matrix(1.25,0,0,1.25,2,1.5)" style="fill:#eee;fill-opacity:1"><path id="path162" d="M 5,2 0,8 5,14 H 16 V 2 Z M 7,5 H 8 C 8.28,5 8.53,5.11 8.71,5.29 L 10,6.59 11.29,5.29 C 11.47,5.11 11.72,5 12,5 h 1 v 1 c 0,0.28 -0.11,0.53 -0.29,0.71 L 11.41,8 12.71,9.29 C 12.89,9.47 13,9.72 13,10 v 1 h -1 c -0.28,0 -0.53,-0.11 -0.71,-0.29 L 10,9.41 8.71,10.71 C 8.53,10.89 8.28,11 8,11 H 7 V 10 C 7,9.72 7.11,9.47 7.29,9.29 L 8.59,8 7.29,6.71 C 7.11,6.53 7,6.28 7,6 Z" class="ColorScheme-Text" style="fill:#eee;fill-opacity:1"/></g></svg>