<svg xmlns="http://www.w3.org/2000/svg" xmlns:svg="http://www.w3.org/2000/svg" xmlns:xlink="http://www.w3.org/1999/xlink" id="svg2424" width="16" height="16" version="1.0"><defs id="defs2426"><linearGradient id="path1082_2_" x1="112.499" x2="112.499" y1="6.137" y2="129.347" gradientTransform="translate(287,-83)" gradientUnits="userSpaceOnUse"><stop id="stop193" offset="0" style="stop-color:#fff;stop-opacity:0"/><stop id="stop195" offset="1" style="stop-color:#fff;stop-opacity:.27450982"/><midPointStop id="midPointStop197" style="stop-color:#fff" offset="0"/><midPointStop id="midPointStop199" style="stop-color:#fff" offset=".5"/><midPointStop id="midPointStop201" style="stop-color:#000" offset="1"/></linearGradient><linearGradient id="linearGradient3388"><stop style="stop-color:#000;stop-opacity:0" id="stop3390" offset="0"/><stop style="stop-color:#000;stop-opacity:.37113401" id="stop3392" offset="1"/></linearGradient><linearGradient id="linearGradient4346"><stop style="stop-color:#00bdec;stop-opacity:1" id="stop4348" offset="0"/><stop style="stop-color:#40bfde;stop-opacity:1" id="stop4350" offset="1"/></linearGradient><linearGradient id="linearGradient4352" x1="400.614" x2="616.486" y1="634.151" y2="666.978" gradientUnits="userSpaceOnUse" xlink:href="#linearGradient4346"/><linearGradient id="linearGradient5323"><stop style="stop-color:#6e6e6e;stop-opacity:1" id="stop5325" offset="0"/><stop style="stop-color:#4d4d4d;stop-opacity:1" id="stop5327" offset="1"/></linearGradient><linearGradient id="linearGradient5329" x1="291.836" x2="650.814" y1="238.082" y2="348.969" gradientUnits="userSpaceOnUse" xlink:href="#linearGradient5323"/><linearGradient id="linearGradient2216" x1="541.335" x2="606.912" y1="104.507" y2="303.14" gradientTransform="matrix(-0.3937741,0,0,0.393752,978.34967,416.9815)" gradientUnits="userSpaceOnUse" xlink:href="#path1082_2_"/><style id="current-color-scheme" type="text/css"/></defs><metadata id="metadata2429"/><g id="layer1" transform="translate(-269.51781,-265.60124)"><g id="g2424" transform="matrix(1.3473684,0,0,1.3473684,-632.88236,-513.34366)"><g id="g2210" transform="matrix(0.25,0,0,0.25,502.3126,469.21738)"><g id="text865" aria-label="⚙" style="font-style:normal;font-weight:400;font-size:118.75px;line-height:1.25;font-family:sans-serif;fill:#eee;fill-opacity:1;stroke:none;stroke-width:2.96875" transform="matrix(0.43703216,0,0,0.43703216,398.73583,279.33429)"><path d="m 669.42371,368.09363 q 2.49328,-0.28992 5.04455,-0.28992 2.55127,0 5.04456,0.28992 l 1.50757,10.84289 q 3.88488,0.75379 7.59582,2.49329 l 7.30591,-7.65381 q 4.40674,2.60925 8.11767,6.32019 l -4.8706,9.04541 q 2.72522,2.89917 4.63867,6.37818 l 9.56726,-1.79749 q 2.14539,4.87061 3.07312,10.20508 l -8.58154,4.00085 q 0.23193,2.02942 0.23193,4.00086 0,1.97143 -0.23193,4.00085 l 8.58154,4.05884 q -0.92773,5.27649 -3.07312,10.14709 l -9.56726,-1.79748 q -1.91345,3.479 -4.63867,6.43616 l 4.8706,8.98742 q -3.71093,3.71094 -8.11767,6.37818 l -7.30591,-7.65381 q -3.71094,1.68152 -7.59582,2.49328 l -1.50757,10.78492 q -2.49329,0.3479 -5.04456,0.3479 -2.55127,0 -5.04455,-0.3479 l -1.50757,-10.78492 q -3.88489,-0.81176 -7.59583,-2.49328 l -7.30591,7.65381 q -4.40673,-2.66724 -8.11767,-6.37818 l 4.8706,-8.98742 q -2.72522,-2.89917 -4.63867,-6.43616 l -9.56726,1.79748 q -2.14538,-4.8706 -3.07312,-10.14709 l 8.58154,-4.05884 q -0.23193,-2.02942 -0.23193,-4.00085 0,-1.97144 0.23193,-4.00086 l -8.58154,-4.00085 q 0.92774,-5.33447 3.07312,-10.20508 l 9.56726,1.79749 q 1.91345,-3.47901 4.63867,-6.43616 l -4.8706,-8.98743 q 3.71094,-3.71094 8.11767,-6.32019 l 7.30591,7.59583 q 3.71094,-1.68152 7.59583,-2.43531 z m 23.07739,25.86059 q -7.47986,-7.53784 -18.03284,-7.53784 -10.55298,0 -18.03284,7.53784 -7.47985,7.47986 -7.47985,18.03284 0,10.495 7.47985,17.97485 7.47986,7.47986 18.03284,7.47986 10.55298,0 18.03284,-7.47986 7.47986,-7.47985 7.47986,-17.97485 0,-10.55298 -7.47986,-18.03284 z m -11.71265,11.65467 q 2.66724,2.60925 2.66724,6.32019 0,3.71093 -2.66724,6.37817 -2.60925,2.60925 -6.32019,2.60925 -3.71094,0 -6.37817,-2.60925 -2.60926,-2.66724 -2.60926,-6.37817 0,-3.71094 2.60926,-6.32019 2.66723,-2.66724 6.37817,-2.66724 3.71094,0 6.32019,2.66724 z" style="stroke-width:2.96875;fill:#eee;fill-opacity:1" id="path867"/></g></g></g></g></svg>