<svg xmlns="http://www.w3.org/2000/svg" xmlns:svg="http://www.w3.org/2000/svg" id="svg8" width="16" height="16" version="1.1" viewBox="0 0 4.233 4.233"><metadata id="metadata5"/><g id="layer1" transform="translate(0,-280.06665)"><path id="path2101" style="font-style:normal;font-weight:400;font-size:4.34112px;line-height:1.25;font-family:sans-serif;letter-spacing:0;fill:#eee;fill-opacity:.50196081;stroke:none;stroke-width:.296344" d="M 2.0039062 1 C 1.7949146 1 1.6177709 1.0724823 1.4707031 1.21875 C 1.3313731 1.3570807 1.2617188 1.5307096 1.2617188 1.7382812 L 1.2617188 9.8632812 C 1.2617188 10.071155 1.3313724 10.248301 1.4707031 10.394531 C 1.6177698 10.53324 1.7948926 10.603516 2.0039062 10.603516 L 7.2773438 10.603516 L 7.2773438 11.875 L 8.015625 12.613281 L 8.7636719 11.865234 L 8.7636719 10.603516 L 14.025391 10.603516 C 14.23438 10.603516 14.407549 10.53324 14.546875 10.394531 C 14.693944 10.248264 14.767578 10.070664 14.767578 9.8632812 L 14.767578 1.7382812 C 14.767578 1.5304072 14.69394 1.3570051 14.546875 1.21875 C 14.40755 1.0724823 14.234385 1 14.025391 1 L 2.0039062 1 z M 2.7480469 2.4765625 L 13.28125 2.4765625 L 13.28125 9.125 L 2.7480469 9.125 L 2.7480469 2.4765625 z M 1.2617188 13.017578 L 1.2617188 14.507812 L 4.3066406 14.507812 L 6.1191406 14.507812 L 6.921875 13.705078 L 6.234375 13.017578 L 1.2617188 13.017578 z M 9.7949219 13.017578 L 9.1074219 13.705078 L 9.9101562 14.507812 L 12.539062 14.507812 L 14.767578 14.507812 L 14.767578 13.017578 L 9.7949219 13.017578 z" transform="matrix(0.26458333,0,0,0.26458333,0,280.06665)"/></g></svg>